<?xml version="1.0" standalone="no"?>
<!DOCTYPE svg PUBLIC "-//W3C//DTD SVG 20010904//EN"
 "http://www.w3.org/TR/2001/REC-SVG-20010904/DTD/svg10.dtd">
<svg version="1.0" xmlns="http://www.w3.org/2000/svg"
 width="1280.000000pt" height="640.000000pt" viewBox="0 0 1280.000000 640.000000"
 preserveAspectRatio="xMidYMid meet">
<metadata>
Created by potrace 1.15, written by Peter Selinger 2001-2017
</metadata>
<g transform="translate(0.000000,640.000000) scale(0.100000,-0.100000)"
fill="#000000" stroke="none">
<path d="M2358 5639 c-387 -26 -778 -95 -1438 -255 -257 -62 -569 -134 -738
-169 -91 -19 -166 -36 -168 -38 -1 -1 -6 -108 -10 -237 -7 -255 3 -395 36
-504 22 -70 73 -148 215 -326 110 -137 175 -236 212 -318 13 -30 48 -161 78
-291 135 -580 303 -1120 515 -1651 58 -146 124 -270 190 -359 261 -351 801
-618 1428 -706 454 -64 1044 -24 1403 95 592 198 1041 653 1452 1475 168 338
205 438 301 826 79 319 121 452 186 585 58 119 104 166 190 191 46 13 84 15
235 9 99 -4 199 -11 223 -15 60 -12 117 -55 178 -136 99 -132 158 -272 234
-555 190 -706 443 -1252 758 -1636 102 -125 243 -264 352 -346 422 -319 1015
-508 1596 -508 823 0 1516 333 1926 925 209 301 322 616 488 1355 62 279 148
612 187 730 43 128 117 276 178 352 25 31 80 82 121 114 46 34 81 69 89 88 22
52 26 134 16 276 -7 93 -7 175 1 265 12 150 5 195 -43 249 -33 39 -78 56 -209
81 -143 28 -304 71 -545 145 -326 101 -465 133 -842 195 -550 91 -674 105
-954 105 -485 0 -881 -57 -1844 -266 -1088 -237 -1424 -287 -1940 -288 -484 0
-719 35 -1515 231 -377 92 -569 132 -865 177 -813 126 -1272 163 -1677 135z"/>
</g>
</svg>
